<svg xmlns="http://www.w3.org/2000/svg" width="720" height="480" viewBox="0 0 720 480">
  <rect width="720" height="480" fill="#edfaff"/>
  <path d="M310 114h100v38c0 30 40 42 40 88v130c0 28-22 50-50 50h-80c-28 0-50-22-50-50V240c0-46 40-58 40-88v-38Z" fill="#74c8f1" stroke="#2378a5" stroke-width="16"/>
  <path d="M314 260h92c24 0 44 20 44 44v40H270v-40c0-24 20-44 44-44Z" fill="#ffffff" opacity=".9"/>
  <path d="M326 330h68" stroke="#2378a5" stroke-width="18" stroke-linecap="round"/>
  <path d="M322 84h76" stroke="#2378a5" stroke-width="22" stroke-linecap="round"/>
</svg>
